<svg xmlns="http://www.w3.org/2000/svg" width="33.029" height="26.263" viewBox="0 0 33.029 26.263"><g transform="translate(-267.493 -30.861)"><path d="M289.047,33.618a3.306,3.306,0,0,0-.007,1.986c.441,1.648,1.779,2.69,2.964,3.809a26.466,26.466,0,0,1,1.939,1.982c.169.2.33.423.633.343.21-.056.358-.311.5-.466.69-.782,1.448-1.506,2.212-2.215a7.712,7.712,0,0,0,2.571-3.406,3.462,3.462,0,0,0-.719-3.314,3.132,3.132,0,0,0-4.678.19,3.139,3.139,0,0,0-3.071-1.089A3.068,3.068,0,0,0,289.047,33.618Z" fill="none" stroke="#282828" stroke-miterlimit="10" stroke-width="1"/><path d="M268.15,48.636c.441,1.648,1.779,2.69,2.964,3.809a26.477,26.477,0,0,1,1.939,1.982c.168.2.33.423.632.343.211-.056.359-.311.5-.466.69-.782,1.448-1.506,2.212-2.215a7.712,7.712,0,0,0,2.571-3.406,3.462,3.462,0,0,0-.719-3.314,3.133,3.133,0,0,0-4.679.19,3.137,3.137,0,0,0-3.07-1.089,3.071,3.071,0,0,0-2.34,2.18A3.314,3.314,0,0,0,268.15,48.636Z" fill="none" stroke="#282828" stroke-miterlimit="10" stroke-width="1"/><path d="M276.4,55.841a11.515,11.515,0,0,0,1.194.354" fill="none" stroke="#282828" stroke-linecap="round" stroke-linejoin="round" stroke-width="1"/><path d="M279.864,56.551c.566.048,1.134.069,1.7.072a17.327,17.327,0,0,0,5.286-.538,2.874,2.874,0,0,0,1.546-1.095c1-1.56-.285-3.318-1-4.7a3.061,3.061,0,0,1-.251-2.895,2.731,2.731,0,0,1,1.686-1.152c1.249-.333,2.74-.294,3.863-.8" fill="none" stroke="#282828" stroke-linecap="round" stroke-linejoin="round" stroke-width="1" stroke-dasharray="2.552 2.297"/><path d="M293.62,44.771a2.824,2.824,0,0,0,.583-1.1" fill="none" stroke="#282828" stroke-linecap="round" stroke-linejoin="round" stroke-width="1"/></g></svg>