<svg xmlns="http://www.w3.org/2000/svg" width="33.207" height="33.131" viewBox="0 0 33.207 33.131"><g transform="translate(-27.5 -27.369)"><circle cx="16" cy="16" r="16" transform="translate(28 28)" fill="none" stroke="#282828" stroke-linecap="round" stroke-linejoin="round" stroke-width="1"/><path d="M40.813,32.688,44,37.047l7.188.765,1.5,7-6.5,3.313L40.813,43l-5.861,1.438-3.283-4.562L34.4,34.313Z" fill="none" stroke="#282828" stroke-linecap="round" stroke-linejoin="round" stroke-width="1"/><line x1="3.188" y2="5.953" transform="translate(40.813 37.047)" fill="none" stroke="#282828" stroke-linecap="round" stroke-linejoin="round" stroke-width="1"/><path d="M51.188,37.813l2.563-2.875,4.833,2.473" fill="none" stroke="#282828" stroke-linecap="round" stroke-linejoin="round" stroke-width="1"/><path d="M52.688,44.813l3.563,2.75L60,44" fill="none" stroke="#282828" stroke-linecap="round" stroke-linejoin="round" stroke-width="1"/><path d="M46.188,48.125,45.125,53.5l4.5,2.837,5.593-.929,1.032-7.846" fill="none" stroke="#282828" stroke-linecap="round" stroke-linejoin="round" stroke-width="1"/><line y1="4.612" x2="4.752" transform="translate(40.813 28.076)" fill="none" stroke="#282828" stroke-linecap="round" stroke-linejoin="round" stroke-width="1"/><line x1="3.007" y1="5.451" transform="translate(50.743 29.486)" fill="none" stroke="#282828" stroke-linecap="round" stroke-linejoin="round" stroke-width="1"/><line x1="0.437" y1="2.774" transform="translate(33.965 31.539)" fill="none" stroke="#282828" stroke-linecap="round" stroke-linejoin="round" stroke-width="1"/><line x1="3.466" y2="1.575" transform="translate(28.202 39.875)" fill="none" stroke="#282828" stroke-linecap="round" stroke-linejoin="round" stroke-width="1"/><line x1="5.556" y1="0.436" transform="translate(29.194 50.08)" fill="none" stroke="#282828" stroke-linecap="round" stroke-linejoin="round" stroke-width="1"/><path d="M45.125,53.5l-6.681,1.438L34.75,50.516l.2-6.079" fill="none" stroke="#282828" stroke-linecap="round" stroke-linejoin="round" stroke-width="1"/><line y1="4.071" transform="translate(38.444 54.938)" fill="none" stroke="#282828" stroke-linecap="round" stroke-linejoin="round" stroke-width="1"/><line x1="1.188" y2="3.039" transform="translate(48.438 56.337)" fill="none" stroke="#282828" stroke-linecap="round" stroke-linejoin="round" stroke-width="1"/></g></svg>